<svg width="533" height="507" viewBox="0 0 533 507" fill="none" xmlns="http://www.w3.org/2000/svg">
<g filter="url(#filter0_d)">
<path fill-rule="evenodd" clip-rule="evenodd" d="M255.485 216.217C257.023 216.217 258.54 216.127 260.032 215.953C267.101 225.081 278.174 230.958 290.621 230.958C311.967 230.958 329.27 213.673 329.27 192.35C329.27 171.027 311.967 153.741 290.621 153.741C289.082 153.741 287.565 153.831 286.073 154.006C279.005 144.878 267.932 139 255.485 139C242.49 139 230.993 145.406 223.986 155.23C220.599 154.261 217.021 153.741 213.322 153.741C191.976 153.741 174.672 171.027 174.672 192.35C174.672 213.673 191.976 230.958 213.322 230.958C226.317 230.958 237.814 224.552 244.82 214.728C248.208 215.698 251.786 216.217 255.485 216.217Z" fill="white"/>
</g>
<path d="M288.742 185.627C288.742 203.244 274.46 217.525 256.843 217.525C239.226 217.525 224.944 203.244 224.944 185.627C224.944 168.009 239.226 153.728 256.843 153.728C274.46 153.728 288.742 168.009 288.742 185.627Z" fill="#FFF7ED"/>
<path d="M246.42 200.342C246.42 217.959 232.138 232.241 214.521 232.241C196.904 232.241 182.623 217.959 182.623 200.342C182.623 182.725 196.904 168.443 214.521 168.443C232.138 168.443 246.42 182.725 246.42 200.342Z" fill="#FFF7ED"/>
<path d="M324.936 195.441C324.936 213.058 310.654 227.34 293.037 227.34C275.42 227.34 261.139 213.058 261.139 195.441C261.139 177.824 275.42 163.542 293.037 163.542C310.654 163.542 324.936 177.824 324.936 195.441Z" fill="#FFF7ED"/>
<path d="M375.655 329.585C375.655 397.624 320.439 452.78 252.328 452.78C184.216 452.78 129 397.624 129 329.585C129 261.545 184.216 206.388 252.328 206.388C320.439 206.388 375.655 261.545 375.655 329.585Z" fill="#AB7D4B"/>
<path d="M159.918 203.228C159.918 192.178 168.876 183.221 179.925 183.221H324.728C335.777 183.221 344.734 192.178 344.734 203.228C344.734 214.277 335.777 223.234 324.728 223.234H179.925C168.876 223.234 159.918 214.277 159.918 203.228Z" fill="#AB7D4B"/>
<path d="M306.646 472.904C306.646 467.089 311.36 462.375 317.175 462.375H322.819C328.635 462.375 333.349 467.089 333.349 472.904C333.349 478.72 328.635 483.434 322.819 483.434H317.175C311.36 483.434 306.646 478.72 306.646 472.904Z" fill="#FFF7ED"/>
<path d="M173.294 475.381C173.294 471.892 176.123 469.064 179.612 469.064H242.871C246.36 469.064 249.188 471.892 249.188 475.381C249.188 478.871 246.36 481.699 242.871 481.699H179.612C176.123 481.699 173.294 478.871 173.294 475.381Z" fill="#FFF7ED"/>
<path d="M276.427 472.553C276.427 469.645 278.784 467.288 281.692 467.288H284.514C287.422 467.288 289.779 469.645 289.779 472.553C289.779 475.461 287.422 477.818 284.514 477.818H281.692C278.784 477.818 276.427 475.461 276.427 472.553Z" fill="#FFF7ED"/>
<g filter="url(#filter1_d)">
<path d="M285.969 187.059C285.969 179.685 291.947 173.707 299.32 173.707C306.694 173.707 312.672 179.685 312.672 187.059V250.208C312.672 257.582 306.694 263.559 299.32 263.559C291.947 263.559 285.969 257.582 285.969 250.208V187.059Z" fill="#FFF7ED"/>
</g>
<path fill-rule="evenodd" clip-rule="evenodd" d="M375.643 331.337C375.652 330.753 375.655 330.168 375.655 329.582C375.655 307.792 369.992 287.323 360.056 269.564H144.6C134.663 287.323 129 307.792 129 329.582C129 330.168 129.004 330.753 129.012 331.337H375.643Z" fill="#E0BE96"/>
<path d="M182.921 299.751C182.921 311.77 173.168 321.513 161.136 321.513C149.105 321.513 139.352 311.77 139.352 299.751C139.352 287.733 149.105 277.99 161.136 277.99C173.168 277.99 182.921 287.733 182.921 299.751Z" fill="white"/>
<path d="M177.291 299.749C177.291 308.666 170.055 315.895 161.128 315.895C152.202 315.895 144.966 308.666 144.966 299.749C144.966 290.832 152.202 283.604 161.128 283.604C170.055 283.604 177.291 290.832 177.291 299.749Z" fill="#87562A"/>
<path d="M170.968 299.758C170.968 305.185 166.563 309.585 161.13 309.585C155.696 309.585 151.292 305.185 151.292 299.758C151.292 294.33 155.696 289.93 161.13 289.93C166.563 289.93 170.968 294.33 170.968 299.758Z" fill="white"/>
<path d="M243.569 299.751C243.569 311.77 233.816 321.513 221.784 321.513C209.753 321.513 200 311.77 200 299.751C200 287.733 209.753 277.99 221.784 277.99C233.816 277.99 243.569 287.733 243.569 299.751Z" fill="white"/>
<path d="M237.951 299.749C237.951 308.666 230.715 315.895 221.789 315.895C212.862 315.895 205.626 308.666 205.626 299.749C205.626 290.832 212.862 283.604 221.789 283.604C230.715 283.604 237.951 290.832 237.951 299.749Z" fill="#87562A"/>
<path d="M231.628 299.758C231.628 305.185 227.224 309.585 221.79 309.585C216.357 309.585 211.952 305.185 211.952 299.758C211.952 294.33 216.357 289.93 221.79 289.93C227.224 289.93 231.628 294.33 231.628 299.758Z" fill="white"/>
<path d="M304.569 299.751C304.569 311.77 294.816 321.513 282.784 321.513C270.753 321.513 261 311.77 261 299.751C261 287.733 270.753 277.99 282.784 277.99C294.816 277.99 304.569 287.733 304.569 299.751Z" fill="white"/>
<path d="M298.951 299.749C298.951 308.666 291.715 315.895 282.789 315.895C273.862 315.895 266.626 308.666 266.626 299.749C266.626 290.832 273.862 283.604 282.789 283.604C291.715 283.604 298.951 290.832 298.951 299.749Z" fill="#87562A"/>
<path d="M292.628 299.758C292.628 305.185 288.224 309.585 282.79 309.585C277.357 309.585 272.952 305.185 272.952 299.758C272.952 294.33 277.357 289.93 282.79 289.93C288.224 289.93 292.628 294.33 292.628 299.758Z" fill="white"/>
<path d="M364.92 299.751C364.92 311.77 355.167 321.513 343.136 321.513C331.105 321.513 321.352 311.77 321.352 299.751C321.352 287.733 331.105 277.99 343.136 277.99C355.167 277.99 364.92 287.733 364.92 299.751Z" fill="white"/>
<path d="M359.303 299.749C359.303 308.666 352.067 315.895 343.141 315.895C334.214 315.895 326.978 308.666 326.978 299.749C326.978 290.832 334.214 283.604 343.141 283.604C352.067 283.604 359.303 290.832 359.303 299.749Z" fill="#87562A"/>
<path d="M352.98 299.758C352.98 305.185 348.576 309.585 343.142 309.585C337.709 309.585 333.304 305.185 333.304 299.758C333.304 294.33 337.709 289.93 343.142 289.93C348.576 289.93 352.98 294.33 352.98 299.758Z" fill="white"/>
<path fill-rule="evenodd" clip-rule="evenodd" d="M139.661 379.782C135.138 369.666 131.94 358.829 130.288 347.492H374.359C372.706 358.829 369.51 369.666 364.986 379.782H139.661Z" fill="#E0BE96"/>
<path d="M380 147.5C380 154.404 374.404 160 367.5 160C360.596 160 355 154.404 355 147.5C355 140.596 360.596 135 367.5 135C374.404 135 380 140.596 380 147.5Z" fill="#D6F0FF"/>
<path d="M135 420.5C135 427.404 129.404 433 122.5 433C115.596 433 110 427.404 110 420.5C110 413.596 115.596 408 122.5 408C129.404 408 135 413.596 135 420.5Z" fill="#D6F0FF"/>
<path d="M443.29 293.3C443.29 300.204 437.694 305.8 430.79 305.8C423.886 305.8 418.29 300.204 418.29 293.3C418.29 286.396 423.886 280.8 430.79 280.8C437.694 280.8 443.29 286.396 443.29 293.3Z" fill="#D6F0FF"/>
<path d="M155 61.5C155 68.4036 149.404 74 142.5 74C135.596 74 130 68.4036 130 61.5C130 54.5964 135.596 49 142.5 49C149.404 49 155 54.5964 155 61.5Z" fill="#D6F0FF"/>
<path d="M384.42 77.6899C384.42 84.5935 378.824 90.1899 371.92 90.1899C365.016 90.1899 359.42 84.5935 359.42 77.6899C359.42 70.7864 365.016 65.1899 371.92 65.1899C378.824 65.1899 384.42 70.7864 384.42 77.6899Z" fill="#D6F0FF"/>
<path d="M445.751 237.667C447.086 246.872 440.707 255.416 431.502 256.751C422.297 258.086 413.753 251.707 412.418 242.502C411.082 233.297 417.462 224.753 426.667 223.418C435.872 222.082 444.416 228.462 445.751 237.667Z" fill="#A48FF7"/>
<path d="M393.773 482.684C394.549 488.033 390.842 492.997 385.494 493.773C380.145 494.549 375.181 490.842 374.405 485.494C373.629 480.145 377.336 475.181 382.684 474.405C388.033 473.629 392.997 477.336 393.773 482.684Z" fill="#F78FDA"/>
<path d="M234.773 55.6842C235.549 61.0326 231.842 65.9972 226.494 66.773C221.145 67.5488 216.181 63.842 215.405 58.4936C214.629 53.1452 218.336 48.1805 223.684 47.4047C229.033 46.6289 233.997 50.3357 234.773 55.6842Z" fill="#9E8FF7"/>
<path d="M100.993 323.995C101.769 329.343 98.0622 334.308 92.7138 335.084C87.3654 335.859 82.4007 332.153 81.6249 326.804C80.8491 321.456 84.556 316.491 89.9044 315.715C95.2528 314.939 100.217 318.646 100.993 323.995Z" fill="#F78FDA"/>
<path d="M422.675 175.233H436.948V181.385H422.675V197.557H416.136V181.385H401.862V175.233H416.136V160.292H422.675V175.233Z" fill="#D6F0FF"/>
<path d="M49.7749 310.353H64.0483V316.505H49.7749V332.677H43.2358V316.505H28.9624V310.353H43.2358V295.412H49.7749V310.353Z" fill="#F7AF8F"/>
<path d="M443.175 461.083H457.448V467.235H443.175V483.407H436.636V467.235H422.362V461.083H436.636V446.142H443.175V461.083Z" fill="#888DA6"/>
<path d="M478.2 100.69C478.2 115.602 466.112 127.69 451.2 127.69C436.288 127.69 424.2 115.602 424.2 100.69C424.2 85.7782 436.288 73.6899 451.2 73.6899C466.112 73.6899 478.2 85.7782 478.2 100.69Z" fill="#F7AF8F"/>
<path d="M453.179 89.2708C454.353 89.5856 455.353 90.0189 456.177 90.571C457.006 91.1025 457.671 91.7113 458.172 92.3976C458.673 93.0839 458.994 93.8216 459.136 94.6106C459.278 95.3995 459.241 96.1958 459.026 96.9995C458.446 99.1631 456.668 100.895 453.691 102.196L448.772 104.356L456.191 106.344C456.254 106.604 456.29 106.923 456.299 107.301C456.329 107.684 456.288 108.082 456.178 108.494C455.979 109.236 455.671 109.727 455.253 109.969C454.84 110.19 454.366 110.228 453.83 110.085L443.104 107.211C442.734 106.78 442.478 106.292 442.337 105.746C442.223 105.185 442.254 104.575 442.43 103.916C442.618 103.215 442.92 102.667 443.335 102.27C443.756 101.853 444.18 101.547 444.608 101.352L449.851 98.8478C450.508 98.538 451.059 98.2549 451.503 97.9984C451.953 97.7214 452.319 97.4663 452.603 97.233C452.907 97.0052 453.133 96.7787 453.282 96.5535C453.451 96.3339 453.566 96.1107 453.627 95.884C453.781 95.3071 453.645 94.7847 453.218 94.3169C452.812 93.8548 452.238 93.5242 451.496 93.3255C450.672 93.1046 449.894 93.0398 449.163 93.131C448.458 93.2071 447.85 93.3314 447.34 93.5039C447.056 93.1628 446.851 92.7764 446.723 92.3448C446.596 91.9131 446.599 91.45 446.731 90.9554C447.018 89.8839 447.736 89.2258 448.883 88.9812C450.037 88.716 451.469 88.8125 453.179 89.2708Z" fill="white"/>
<path d="M80.2202 418.61C80.2202 433.522 68.1319 445.61 53.2202 445.61C38.3085 445.61 26.2202 433.522 26.2202 418.61C26.2202 403.698 38.3085 391.61 53.2202 391.61C68.1319 391.61 80.2202 403.698 80.2202 418.61Z" fill="#F7AF8F"/>
<path d="M55.1892 410.191C56.3637 410.505 57.3629 410.939 58.1868 411.491C59.0162 412.022 59.6813 412.631 60.182 413.318C60.6828 414.004 61.0042 414.742 61.1461 415.53C61.2881 416.319 61.2514 417.116 61.0361 417.919C60.4563 420.083 58.6781 421.815 55.7014 423.116L50.7826 425.276L58.2009 427.264C58.2638 427.524 58.2998 427.843 58.309 428.221C58.3388 428.604 58.2985 429.002 58.188 429.414C57.9892 430.156 57.6808 430.647 57.2628 430.889C56.8503 431.109 56.3762 431.148 55.8404 431.005L45.1147 428.131C44.7442 427.7 44.4885 427.212 44.3476 426.666C44.2328 426.105 44.2638 425.495 44.4405 424.836C44.6282 424.135 44.9298 423.587 45.3453 423.19C45.7663 422.773 46.1906 422.467 46.6182 422.272L51.8611 419.768C52.5183 419.458 53.069 419.175 53.5132 418.918C53.9629 418.641 54.3294 418.386 54.6128 418.153C54.9168 417.925 55.1431 417.699 55.2918 417.473C55.461 417.254 55.576 417.031 55.6368 416.804C55.7914 416.227 55.6553 415.705 55.2285 415.237C54.8223 414.775 54.2482 414.444 53.5064 414.245C52.6822 414.025 51.9044 413.96 51.1732 414.051C50.4682 414.127 49.8607 414.251 49.3506 414.424C49.0666 414.083 48.8609 413.696 48.7336 413.265C48.6063 412.833 48.6089 412.37 48.7415 411.875C49.0286 410.804 49.746 410.146 50.8938 409.901C52.047 409.636 53.4788 409.732 55.1892 410.191Z" fill="white"/>
<path d="M119.446 166.119C121.587 180.876 111.359 194.574 96.6019 196.715C81.8447 198.855 68.1463 188.628 66.0057 173.87C63.8652 159.113 74.093 145.415 88.8502 143.274C103.608 141.134 117.306 151.361 119.446 166.119Z" fill="#9E8FF7"/>
<path d="M439.417 368.789C441.558 383.546 431.33 397.244 416.573 399.385C401.815 401.525 388.117 391.298 385.976 376.54C383.836 361.783 394.064 348.085 408.821 345.944C423.578 343.804 437.277 354.031 439.417 368.789Z" fill="#9E8FF7"/>
<path d="M157.751 118.667C159.086 127.872 152.707 136.416 143.502 137.751C134.297 139.086 125.753 132.707 124.418 123.502C123.082 114.297 129.462 105.753 138.667 104.418C147.872 103.082 156.416 109.462 157.751 118.667Z" fill="#F7AF8F"/>
<path d="M529.951 210.732C531.287 219.937 524.907 228.481 515.702 229.816C506.497 231.151 497.953 224.772 496.618 215.567C495.283 206.362 501.662 197.818 510.867 196.482C520.072 195.147 528.616 201.527 529.951 210.732Z" fill="#F7AF8F"/>
<path d="M41.7512 227.667C43.0864 236.872 36.7068 245.416 27.502 246.751C18.2971 248.086 9.75274 241.707 8.41757 232.502C7.08238 223.297 13.462 214.753 22.6669 213.418C31.8716 212.082 40.416 218.462 41.7512 227.667Z" fill="#F7AF8F"/>
<path d="M177 115.914L188.602 104.102L177.07 92.3243L181.254 88L192.82 99.7774L204.387 88L208.57 92.3243L197.039 104.102L208.641 115.914L204.457 120.238L192.82 108.391L181.184 120.238L177 115.914Z" fill="#A48FF7"/>
<path d="M90.0836 91.2756L64.8449 115.648L60.3514 110.995L85.5901 86.6224L90.0836 91.2756ZM62.5458 93.5298C61.7643 92.7206 61.3491 91.8182 61.3002 90.8229C61.2681 89.8112 61.7326 88.8414 62.6935 87.9134C63.6546 86.9853 64.64 86.555 65.6499 86.6223C66.6767 86.6734 67.5809 87.1036 68.3624 87.9128C69.1276 88.7053 69.5097 89.607 69.5086 90.6181C69.5244 91.6129 69.0518 92.5743 68.0907 93.5024C67.1298 94.4304 66.1525 94.8691 65.1588 94.8186C64.1821 94.7518 63.311 94.3223 62.5458 93.5298ZM82.4982 114.191C81.7167 113.382 81.3016 112.48 81.2526 111.484C81.2206 110.473 81.685 109.503 82.646 108.575C83.607 107.647 84.5925 107.216 85.6024 107.284C86.6292 107.335 87.5333 107.765 88.3148 108.574C89.0637 109.35 89.4458 110.252 89.461 111.279C89.4768 112.274 89.0042 113.236 88.0431 114.164C87.0822 115.092 86.1048 115.53 85.1112 115.48C84.1182 115.396 83.2471 114.967 82.4982 114.191Z" fill="#D6F0FF"/>
<path d="M499.898 365.841L469.496 348.327L472.725 342.721L503.127 360.235L499.898 365.841ZM490.116 340C490.678 339.025 491.43 338.377 492.373 338.055C493.336 337.744 494.397 337.922 495.554 338.589C496.712 339.256 497.398 340.084 497.613 341.073C497.848 342.074 497.684 343.062 497.123 344.037C496.573 344.991 495.812 345.608 494.84 345.886C493.888 346.177 492.834 345.988 491.676 345.321C490.519 344.654 489.827 343.837 489.6 342.868C489.394 341.911 489.566 340.955 490.116 340ZM475.779 364.888C476.34 363.914 477.093 363.265 478.035 362.943C478.999 362.632 480.059 362.81 481.217 363.477C482.374 364.144 483.061 364.972 483.275 365.961C483.51 366.962 483.347 367.95 482.785 368.925C482.247 369.859 481.486 370.476 480.502 370.774C479.551 371.065 478.496 370.876 477.339 370.21C476.181 369.543 475.489 368.725 475.263 367.756C475.069 366.779 475.24 365.823 475.779 364.888Z" fill="#D6F0FF"/>
<path d="M117.136 466.426L91.8971 490.799L87.4036 486.146L112.642 461.773L117.136 466.426ZM89.598 468.681C88.8165 467.871 88.4014 466.969 88.3524 465.974C88.3204 464.962 88.7848 463.992 89.7458 463.064C90.7068 462.136 91.6923 461.706 92.7022 461.773C93.729 461.824 94.6331 462.254 95.4146 463.064C96.1798 463.856 96.5619 464.758 96.5608 465.769C96.5766 466.764 96.104 467.725 95.143 468.653C94.182 469.581 93.2047 470.02 92.211 469.969C91.2343 469.903 90.3633 469.473 89.598 468.681ZM109.55 489.342C108.769 488.533 108.354 487.63 108.305 486.635C108.273 485.623 108.737 484.654 109.698 483.726C110.659 482.798 111.645 482.367 112.655 482.435C113.681 482.486 114.586 482.916 115.367 483.725C116.116 484.501 116.498 485.402 116.513 486.43C116.529 487.425 116.056 488.387 115.095 489.315C114.134 490.243 113.157 490.681 112.163 490.631C111.17 490.547 110.299 490.118 109.55 489.342Z" fill="#888DA6"/>
<path d="M296.394 91.7461H309.086V100.922H296.394V115.266H286.727V100.922H274V91.7461H286.727V78H296.394V91.7461Z" fill="#D6F0FF"/>
<path d="M282.687 48.7104H261V42H282.687V48.7104Z" fill="#F78FDA"/>
<path d="M118.767 237.948L102.116 242.082L100.837 236.929L117.488 232.796L118.767 237.948Z" fill="#F78FDA"/>
<path d="M86.7412 161.765C87.0227 161.447 87.3609 161.119 87.7559 160.782C88.1691 160.434 88.5585 160.15 88.9243 159.931C89.3449 159.678 89.7746 159.482 90.2136 159.343C90.6598 159.174 91.0987 159.097 91.5305 159.111C91.9513 159.107 92.352 159.215 92.7326 159.434C93.1132 159.654 93.4519 160.01 93.7485 160.504L98.1325 167.8L100.574 166.333C100.804 166.469 101.073 166.668 101.381 166.931C101.688 167.194 101.952 167.509 102.172 167.874C102.589 168.569 102.731 169.156 102.595 169.636C102.46 170.115 102.155 170.498 101.68 170.783L100.39 171.558L102.335 174.795C102.156 174.952 101.882 175.179 101.512 175.476C101.154 175.79 100.792 176.058 100.426 176.278C100.024 176.519 99.6566 176.715 99.3237 176.865C98.9908 177.016 98.6762 177.093 98.3799 177.097C98.0908 177.071 97.8146 176.963 97.551 176.773C97.2874 176.583 97.0238 176.269 96.7601 175.83L95.8372 174.294L88.9524 178.431C88.4 178.464 87.842 178.364 87.2784 178.13C86.7221 177.867 86.2572 177.424 85.8836 176.803C85.6749 176.455 85.4899 176.044 85.3286 175.568C85.1673 175.093 85.103 174.634 85.1356 174.191L86.7412 161.765ZM90.7277 165.231L90.6454 165.28L90.0957 172.629L93.8261 170.388L90.7277 165.231Z" fill="white"/>
<path d="M152.976 363.276C152.976 359.205 149.672 355.905 145.597 355.905C141.522 355.905 138.219 359.205 138.219 363.276C138.219 367.346 141.522 370.646 145.597 370.646C149.672 370.646 152.976 367.346 152.976 363.276Z" fill="white"/>
<path d="M174.437 363.276C174.437 359.205 171.133 355.905 167.058 355.905C162.983 355.905 159.68 359.205 159.68 363.276C159.68 367.346 162.983 370.646 167.058 370.646C171.133 370.646 174.437 367.346 174.437 363.276Z" fill="white"/>
<path d="M195.437 363.276C195.437 359.205 192.133 355.905 188.058 355.905C183.983 355.905 180.68 359.205 180.68 363.276C180.68 367.346 183.983 370.646 188.058 370.646C192.133 370.646 195.437 367.346 195.437 363.276Z" fill="white"/>
<path d="M217.437 363.276C217.437 359.205 214.133 355.905 210.058 355.905C205.983 355.905 202.68 359.205 202.68 363.276C202.68 367.346 205.983 370.646 210.058 370.646C214.133 370.646 217.437 367.346 217.437 363.276Z" fill="white"/>
<path d="M238.437 363.276C238.437 359.205 235.133 355.905 231.058 355.905C226.983 355.905 223.68 359.205 223.68 363.276C223.68 367.346 226.983 370.646 231.058 370.646C235.133 370.646 238.437 367.346 238.437 363.276Z" fill="white"/>
<path d="M259.437 363.276C259.437 359.205 256.133 355.905 252.058 355.905C247.983 355.905 244.68 359.205 244.68 363.276C244.68 367.346 247.983 370.646 252.058 370.646C256.133 370.646 259.437 367.346 259.437 363.276Z" fill="white"/>
<path d="M281.437 363.276C281.437 359.205 278.133 355.905 274.058 355.905C269.983 355.905 266.68 359.205 266.68 363.276C266.68 367.346 269.983 370.646 274.058 370.646C278.133 370.646 281.437 367.346 281.437 363.276Z" fill="white"/>
<path d="M302.437 363.276C302.437 359.205 299.133 355.905 295.058 355.905C290.983 355.905 287.68 359.205 287.68 363.276C287.68 367.346 290.983 370.646 295.058 370.646C299.133 370.646 302.437 367.346 302.437 363.276Z" fill="white"/>
<path d="M323.437 363.276C323.437 359.205 320.133 355.905 316.058 355.905C311.983 355.905 308.68 359.205 308.68 363.276C308.68 367.346 311.983 370.646 316.058 370.646C320.133 370.646 323.437 367.346 323.437 363.276Z" fill="white"/>
<path d="M345.437 363.276C345.437 359.205 342.133 355.905 338.058 355.905C333.983 355.905 330.68 359.205 330.68 363.276C330.68 367.346 333.983 370.646 338.058 370.646C342.133 370.646 345.437 367.346 345.437 363.276Z" fill="white"/>
<path d="M366.437 363.276C366.437 359.205 363.133 355.905 359.058 355.905C354.983 355.905 351.68 359.205 351.68 363.276C351.68 367.346 354.983 370.646 359.058 370.646C363.133 370.646 366.437 367.346 366.437 363.276Z" fill="white"/>
<defs>
<filter id="filter0_d" x="144.666" y="121.497" width="214.61" height="151.97" filterUnits="userSpaceOnUse" color-interpolation-filters="sRGB">
<feFlood flood-opacity="0" result="BackgroundImageFix"/>
<feColorMatrix in="SourceAlpha" type="matrix" values="0 0 0 0 0 0 0 0 0 0 0 0 0 0 0 0 0 0 127 0"/>
<feOffset dy="12.5025"/>
<feGaussianBlur stdDeviation="15.003"/>
<feColorMatrix type="matrix" values="0 0 0 0 0 0 0 0 0 0 0 0 0 0 0 0 0 0 0.15 0"/>
<feBlend mode="normal" in2="BackgroundImageFix" result="effect1_dropShadow"/>
<feBlend mode="normal" in="SourceGraphic" in2="effect1_dropShadow" result="shape"/>
</filter>
<filter id="filter1_d" x="280.968" y="173.707" width="36.7054" height="101.105" filterUnits="userSpaceOnUse" color-interpolation-filters="sRGB">
<feFlood flood-opacity="0" result="BackgroundImageFix"/>
<feColorMatrix in="SourceAlpha" type="matrix" values="0 0 0 0 0 0 0 0 0 0 0 0 0 0 0 0 0 0 127 0"/>
<feOffset dy="6.25125"/>
<feGaussianBlur stdDeviation="2.5005"/>
<feColorMatrix type="matrix" values="0 0 0 0 0.529412 0 0 0 0 0.337255 0 0 0 0 0.164706 0 0 0 1 0"/>
<feBlend mode="normal" in2="BackgroundImageFix" result="effect1_dropShadow"/>
<feBlend mode="normal" in="SourceGraphic" in2="effect1_dropShadow" result="shape"/>
</filter>
</defs>
</svg>
